<?xml version="1.0" encoding="utf-8"?>
<!-- Generator: Adobe Illustrator 24.1.3, SVG Export Plug-In . SVG Version: 6.00 Build 0)  -->
<svg version="1.1" id="圖層_1" xmlns="http://www.w3.org/2000/svg" xmlns:xlink="http://www.w3.org/1999/xlink" x="0px" y="0px"
	 viewBox="0 0 100 100" style="enable-background:new 0 0 100 100;" xml:space="preserve">
<style type="text/css">
	.st0{fill:#027623;}
	.st1{fill:#FFFFFF;}
</style>
<circle class="st0" cx="50" cy="50" r="49.5"/>
<path class="st1" d="M71.7,50C68,42.2,60.9,37,54.2,34c-3.3-1.5,0.2-4.5-7.3-3.6c-17,1.9-25,8.8-30.3,15.9c-4.2,5.9-6,13.1-5,20.3
	C12.5,73.7,19,83.1,28,84c4.4,0.4,7.5,0.1,9.2-1.1c-11.4-2-19.8-9-19.8-17.4c0-9.9,11.8-18,26.4-18s26.4,8,26.4,18
	c0,8-7.8,14.9-18.5,17.1c1.7,0.6,3.5,1,5.3,1.1c9.4,0,15.4-6.9,17.1-14.6C75.3,62.6,74.5,56,71.7,50z"/>
<path class="st1" d="M43.7,51.7c-13.3,0-24,6.7-24,15s10.8,15,24,15s24-6.7,24-15C67.7,58.4,57,51.7,43.7,51.7z M33.9,64.5
	c0,0.6-0.4,1-1,1c-0.6,0-1-0.4-1-1c0-1.5-1.2-2.8-2.8-2.8c-1.5,0-2.8,1.2-2.8,2.8c0,0.6-0.4,1-1,1c-0.6,0-1-0.4-1-1
	c-0.4-2.6,1.4-5.1,4.1-5.4c2.6-0.4,5.1,1.4,5.4,4.1C34,63.6,34,64,33.9,64.5z M61.5,64.5c0,0.6-0.4,1-1,1s-1-0.4-1-1
	c0-1.5-1.2-2.8-2.8-2.8S54,63,54,64.5c0,0.6-0.4,1-1,1s-1-0.4-1-1c-0.4-2.6,1.4-5.1,4.1-5.4c2.6-0.4,5.1,1.4,5.4,4.1
	C61.6,63.6,61.6,64,61.5,64.5z"/>
<path class="st0" d="M86.9,29.9c0.3-2.9-1.1-5.8-3.6-7.4c-1.9-1.2-4.1-1.8-6.3-1.6l-2.3,0.4l0,0c-0.3-0.7-0.5-1.5-0.9-2.2
	c-1-2-2.7-3.5-4.7-4.4c-2.7-1.3-5.9-0.9-8.2,0.9c-1.4,1-2.5,2.4-3.2,4c-1.3,2.9-1,5.9-0.1,8.9s2.6,8.6,3.9,12.9l0.8,2.4l0,0l2.5-0.6
	c4.3-1.2,8.7-2.3,13-3.6s5.7-2.3,7.4-4.9C86.2,33.3,86.7,31.6,86.9,29.9z"/>
<path class="st1" d="M84.5,29.8c0.2-2.5-1-5-3.1-6.3c-1.6-1-3.4-1.5-5.3-1.3l-1.9,0.4l0,0c-0.2-0.6-0.4-1.2-0.7-1.8
	c-0.9-1.7-2.3-3-4-3.7c-2.3-1.1-5-0.8-7,0.8c-1.2,0.9-2.1,2.1-2.7,3.4c-0.9,2.4-0.9,5.1-0.1,7.5c1,3.7,2.2,7.3,3.3,10.9l0.7,2l0,0
	l2.1-0.5c3.7-1,7.3-1.9,11-3.1c2.5-0.6,4.7-2.1,6.2-4.1C83.9,32.8,84.4,31.3,84.5,29.8z"/>
</svg>
