<svg xmlns="http://www.w3.org/2000/svg" xmlns:xlink="http://www.w3.org/1999/xlink" viewBox="0 0 100 100"><defs><style>.cls-1{fill:url(#新建渐变色板_1);}.cls-2{fill:#fff;}.cls-3{fill:url(#新建渐变色板_1-2);}.cls-4{fill:url(#新建渐变色板_1-3);}</style><linearGradient id="新建渐变色板_1" x1="1.17" y1="50" x2="100.17" y2="50" gradientUnits="userSpaceOnUse"><stop offset="0" stop-color="#f1304a"/><stop offset="1" stop-color="#db301a"/></linearGradient><linearGradient id="新建渐变色板_1-2" x1="66.05" y1="25.6" x2="87.69" y2="25.6" xlink:href="#新建渐变色板_1"/><linearGradient id="新建渐变色板_1-3" x1="58.86" y1="41.57" x2="71.53" y2="41.57" xlink:href="#新建渐变色板_1"/></defs><title>TAOYUAN-LOGO-表情</title><g id="图层_2" data-name="图层 2"><circle class="cls-1" cx="50.7" cy="50" r="49.5"/><path class="cls-2" d="M72.5,49.9C68.7,42.1,61.7,36.8,55,33.8c-3.3-1.5.2-4.5-7.3-3.6-17,1.9-25,8.8-30.3,15.9a28.2,28.2,0,0,0-5,20.3c.9,7.2,7.5,16.6,16.4,17.4,4.4.4,7.5.1,9.2-1.1-11.4-2-19.8-9-19.8-17.4,0-9.9,11.8-18,26.4-18s26.4,8,26.4,18c0,8-7.8,14.9-18.5,17.1a17.3,17.3,0,0,0,5.3,1.1c9.4,0,15.4-6.9,17.1-14.6A31.3,31.3,0,0,0,72.5,49.9Z"/><path class="cls-2" d="M44.5,51.6c-13.3,0-24,6.7-24,15s10.8,15,24,15,24-6.7,24-15S57.7,51.6,44.5,51.6ZM29.7,65.1a2.9,2.9,0,1,1,2.9-2.9A2.9,2.9,0,0,1,29.7,65.1Zm28,0a2.9,2.9,0,1,1,2.9-2.9A2.9,2.9,0,0,1,57.7,65.1Z"/><path class="cls-2" d="M69.4,35.6h0a3.5,3.5,0,0,1-.9-4.5l7-13.8a3.7,3.7,0,0,1,5.2-1.7l3.7,2.6a3.7,3.7,0,0,1,.2,5.5L73.9,34.9A3.5,3.5,0,0,1,69.4,35.6Z"/><path class="cls-3" d="M78.9,15a3.1,3.1,0,0,1,1.8.6l3.7,2.6a3.7,3.7,0,0,1,.2,5.5L73.9,34.9a3.8,3.8,0,0,1-2.7,1.2,3.1,3.1,0,0,1-1.8-.6,3.5,3.5,0,0,1-.9-4.5l7-13.8A4,4,0,0,1,78.9,15m0-2h0a6,6,0,0,0-5.2,3.3l-7,13.8a5.5,5.5,0,0,0,1.5,7,5.1,5.1,0,0,0,2.9.9,5.8,5.8,0,0,0,4.2-1.9L86,25.1a6.1,6.1,0,0,0,1.7-4.8,5.2,5.2,0,0,0-2.2-3.8L81.8,14a5.1,5.1,0,0,0-2.9-.9Z"/><rect class="cls-2" x="60.9" y="37.2" width="8.7" height="8.67" rx="4.3" ry="4.3" transform="translate(-6.3 71.1) rotate(-54.9)"/><path class="cls-4" d="M65.2,37.2a4.3,4.3,0,1,1-3.6,1.8,4.3,4.3,0,0,1,3.6-1.8m0-2h0a6.3,6.3,0,1,0,3.6,1.2,6.3,6.3,0,0,0-3.6-1.2Z"/></g></svg>