<?xml version="1.0" encoding="utf-8"?>
<!-- Generator: Adobe Illustrator 24.1.3, SVG Export Plug-In . SVG Version: 6.00 Build 0)  -->
<svg version="1.1" id="圖層_1" xmlns="http://www.w3.org/2000/svg" xmlns:xlink="http://www.w3.org/1999/xlink" x="0px" y="0px"
	 viewBox="0 0 100 100" style="enable-background:new 0 0 100 100;" xml:space="preserve">
<style type="text/css">
	.st0{fill:#FFAA22;}
	.st1{fill:#FFFFFF;}
</style>
<g id="图层_2">
	<circle class="st0" cx="50.7" cy="50" r="49.5"/>
	<path class="st1" d="M72.5,49.9C68.7,42.1,61.7,36.8,55,33.8c-3.3-1.5,0.2-4.5-7.3-3.6c-17,1.9-25,8.8-30.3,15.9
		c-4.2,5.9-6,13.1-5,20.3c0.9,7.2,7.5,16.6,16.4,17.4c4.4,0.4,7.5,0.1,9.2-1.1c-11.4-2-19.8-9-19.8-17.4c0-9.9,11.8-18,26.4-18
		s26.4,8,26.4,18c0,8-7.8,14.9-18.5,17.1c1.7,0.6,3.5,1,5.3,1.1c9.4,0,15.4-6.9,17.1-14.6C76.1,62.5,75.3,55.8,72.5,49.9z"/>
	<path class="st1" d="M44.5,51.6c-13.3,0-24,6.7-24,15s10.8,15,24,15s24-6.7,24-15S57.7,51.6,44.5,51.6z M29.7,65.1
		c-1.6,0-2.9-1.3-2.9-2.9c0-1.6,1.3-2.9,2.9-2.9s2.9,1.3,2.9,2.9C32.6,63.8,31.3,65.1,29.7,65.1L29.7,65.1z M57.7,65.1
		c-1.6,0-2.9-1.3-2.9-2.9s1.3-2.9,2.9-2.9c1.6,0,2.9,1.3,2.9,2.9C60.6,63.8,59.3,65.1,57.7,65.1C57.7,65.1,57.7,65.1,57.7,65.1z"/>
	<path class="st1" d="M74.1,41.4c-5.1,0-9.2-4.1-9.2-9.2c0-6.9,9.2-17.2,9.2-17.2s9.2,10.2,9.2,17.2C83.3,37.3,79.2,41.4,74.1,41.4z
		"/>
	<path class="st1" d="M85.8,58.8c-3.3,0.1-6-2.6-6.1-5.9c0-0.1,0-0.1,0-0.2c0-4.5,6.1-11.2,6.1-11.2s6.1,6.7,6.1,11.2
		c0.1,3.3-2.6,6-5.9,6.1C85.9,58.8,85.9,58.8,85.8,58.8z"/>
</g>
</svg>
