<svg id="图层_1" data-name="图层 1" xmlns="http://www.w3.org/2000/svg" xmlns:xlink="http://www.w3.org/1999/xlink" viewBox="0 0 286 50"><defs><style>.cls-1,.cls-27{fill:#fff;}.cls-1{opacity:0.3;}.cls-2{fill:url(#未命名的渐变_1158);}.cls-3{opacity:0.2;}.cls-4{fill:#303030;}.cls-5{fill:url(#linear-gradient);}.cls-6{fill:url(#Degradado_sin_nombre_7);}.cls-7{fill:url(#linear-gradient-2);}.cls-8{fill:url(#Degradado_sin_nombre_7-2);}.cls-9{fill:url(#linear-gradient-3);}.cls-10{fill:url(#Degradado_sin_nombre_7-3);}.cls-11{fill:url(#Degradado_sin_nombre_2);}.cls-12{fill:url(#Degradado_sin_nombre_7-4);}.cls-13{fill:url(#linear-gradient-4);}.cls-14{fill:url(#Degradado_sin_nombre_11);}.cls-15{fill:url(#Degradado_sin_nombre_7-5);}.cls-16{fill:url(#Degradado_sin_nombre_7-6);}.cls-17{fill:url(#未命名的渐变_25);}.cls-18{fill:url(#Degradado_sin_nombre_11-2);}.cls-19{fill:url(#linear-gradient-5);}.cls-20{fill:url(#Degradado_sin_nombre_7-7);}.cls-21{fill:url(#Degradado_sin_nombre_2-2);}.cls-22{fill:url(#linear-gradient-6);}.cls-23{fill:url(#Degradado_sin_nombre_3);}.cls-24{fill:url(#Degradado_sin_nombre_2-3);}.cls-25{fill:url(#Degradado_sin_nombre_5);}.cls-26{fill:url(#Degradado_sin_nombre_7-8);}.cls-28{fill:#383838;}.cls-29{fill:#545454;}</style><linearGradient id="未命名的渐变_1158" x1="5.99" y1="25" x2="44.01" y2="25" gradientUnits="userSpaceOnUse"><stop offset="0" stop-color="#f1304a"/><stop offset="1" stop-color="#db301a"/></linearGradient><linearGradient id="linear-gradient" x1="-11.19" y1="16.25" x2="38.71" y2="16.25" gradientUnits="userSpaceOnUse"><stop offset="0" stop-color="#303030"/><stop offset="1" stop-color="#404040"/></linearGradient><linearGradient id="Degradado_sin_nombre_7" x1="-11.19" y1="13.89" x2="38.71" y2="13.89" gradientUnits="userSpaceOnUse"><stop offset="0" stop-color="#303030"/><stop offset="1" stop-color="#a9a9a9"/></linearGradient><linearGradient id="linear-gradient-2" x1="20.47" y1="-20.41" x2="20.47" y2="11.08" gradientUnits="userSpaceOnUse"><stop offset="0" stop-color="#6f6f6f"/><stop offset="1" stop-color="#383838"/></linearGradient><linearGradient id="Degradado_sin_nombre_7-2" x1="24.87" y1="5.9" x2="9.65" y2="5.9" xlink:href="#Degradado_sin_nombre_7"/><linearGradient id="linear-gradient-3" x1="20.48" y1="3.66" x2="39.68" y2="14.74" gradientUnits="userSpaceOnUse"><stop offset="0" stop-color="#a9a9a9"/><stop offset="1" stop-color="#303030"/></linearGradient><linearGradient id="Degradado_sin_nombre_7-3" x1="31.56" y1="9.16" x2="54.38" y2="9.16" xlink:href="#Degradado_sin_nombre_7"/><linearGradient id="Degradado_sin_nombre_2" x1="38.71" y1="17.28" x2="54.38" y2="17.28" gradientUnits="userSpaceOnUse"><stop offset="0" stop-color="#303030"/><stop offset="1" stop-color="#303030"/></linearGradient><linearGradient id="Degradado_sin_nombre_7-4" x1="3.87" y1="30.18" x2="19.85" y2="30.18" xlink:href="#Degradado_sin_nombre_7"/><linearGradient id="linear-gradient-4" x1="-11.19" y1="26.52" x2="6.84" y2="26.52" xlink:href="#linear-gradient-3"/><linearGradient id="Degradado_sin_nombre_11" x1="15.78" y1="42.99" x2="4.14" y2="31.35" gradientUnits="userSpaceOnUse"><stop offset="0" stop-color="#e4e4e4"/><stop offset="1" stop-color="#a9a9a9"/></linearGradient><linearGradient id="Degradado_sin_nombre_7-5" x1="-11.19" y1="34.04" x2="3.87" y2="34.04" xlink:href="#Degradado_sin_nombre_7"/><linearGradient id="Degradado_sin_nombre_7-6" x1="3.02" y1="30.77" x2="-9.15" y2="42.94" xlink:href="#Degradado_sin_nombre_7"/><linearGradient id="未命名的渐变_25" x1="25.57" y1="43.45" x2="6.86" y2="43.45" gradientUnits="userSpaceOnUse"><stop offset="0.46" stop-color="#fff"/><stop offset="0.47" stop-color="#fcfcfc"/><stop offset="0.57" stop-color="#d8d8d8"/><stop offset="0.68" stop-color="#bdbdbd"/><stop offset="0.78" stop-color="#a9a9a9"/><stop offset="0.89" stop-color="#9d9d9d"/><stop offset="1" stop-color="#999"/></linearGradient><linearGradient id="Degradado_sin_nombre_11-2" x1="40.43" y1="39.73" x2="73.1" y2="39.73" xlink:href="#Degradado_sin_nombre_11"/><linearGradient id="linear-gradient-5" x1="11.86" y1="43.4" x2="110.53" y2="43.4" xlink:href="#linear-gradient-3"/><linearGradient id="Degradado_sin_nombre_7-7" x1="11.86" y1="27.67" x2="110.53" y2="27.67" xlink:href="#Degradado_sin_nombre_7"/><linearGradient id="Degradado_sin_nombre_2-2" x1="6.84" y1="12.2" x2="16.2" y2="12.2" xlink:href="#Degradado_sin_nombre_2"/><linearGradient id="linear-gradient-6" x1="44.36" y1="45.1" x2="44.36" y2="16.41" gradientUnits="userSpaceOnUse"><stop offset="0.24" stop-color="#e4e4e4"/><stop offset="0.41" stop-color="#ccc"/><stop offset="0.61" stop-color="#b9b9b9"/><stop offset="0.8" stop-color="#adadad"/><stop offset="1" stop-color="#a9a9a9"/></linearGradient><linearGradient id="Degradado_sin_nombre_3" x1="-11.19" y1="21.04" x2="6.84" y2="21.04" gradientUnits="userSpaceOnUse"><stop offset="0" stop-color="#404040"/><stop offset="1" stop-color="#303030"/></linearGradient><linearGradient id="Degradado_sin_nombre_2-3" x1="6.84" y1="27.67" x2="38.71" y2="27.67" xlink:href="#Degradado_sin_nombre_2"/><linearGradient id="Degradado_sin_nombre_5" x1="11.86" y1="43.12" x2="40.43" y2="43.12" gradientUnits="userSpaceOnUse"><stop offset="0" stop-color="#a9a9a9"/><stop offset="1" stop-color="#e4e4e4"/></linearGradient><linearGradient id="Degradado_sin_nombre_7-8" x1="40.43" y1="32.91" x2="73.1" y2="32.91" xlink:href="#Degradado_sin_nombre_7"/></defs><title>LOGO-tw-dark</title><circle class="cls-1" cx="25" cy="25" r="25"/><circle class="cls-2" cx="25" cy="25" r="19.01"/><g class="cls-3"><path class="cls-4" d="M1.17,17.41v0l5.67,4Z"/><polygon class="cls-4" points="16.2 11.08 6.84 21.43 38.71 16.41 16.2 11.08"/><polygon class="cls-5" points="16.2 11.08 6.84 21.43 38.71 16.41 16.2 11.08"/><path class="cls-4" d="M8.35,6.35A25,25,0,0,0,1.17,17.41l5.66,4Z"/><path class="cls-6" d="M8.35,6.35A25,25,0,0,0,1.17,17.41l5.66,4Z"/><path class="cls-4" d="M24.74,0a25,25,0,0,0-5.69.71L16.2,11.08Z"/><path class="cls-7" d="M24.74,0a25,25,0,0,0-5.69.71L16.2,11.08Z"/><path class="cls-4" d="M19.05.71A24.83,24.83,0,0,0,13.19,3l3,8.12Z"/><path class="cls-8" d="M19.05.71A24.83,24.83,0,0,0,13.19,3l3,8.12Z"/><path class="cls-4" d="M38.71,16.41,34.61,1.92A24.92,24.92,0,0,0,25,0h-.26L16.2,11.08Z"/><path class="cls-9" d="M38.71,16.41,34.61,1.92A24.92,24.92,0,0,0,25,0h-.26L16.2,11.08Z"/><path class="cls-4" d="M46.34,12A25.09,25.09,0,0,0,34.61,1.92l4.1,14.49Z"/><path class="cls-10" d="M46.34,12A25.09,25.09,0,0,0,34.61,1.92l4.1,14.49Z"/><path class="cls-4" d="M49.88,22.59A24.84,24.84,0,0,0,46.34,12l-7.62,4.44Z"/><path class="cls-11" d="M49.88,22.59A24.84,24.84,0,0,0,46.34,12l-7.62,4.44Z"/><polygon class="cls-4" points="3.87 31.62 19.85 38.92 6.84 21.43 3.87 31.62"/><polygon class="cls-12" points="3.87 31.62 19.85 38.92 6.84 21.43 3.87 31.62"/><path class="cls-4" d="M6.84,21.43,0,24.66c0,.11,0,.23,0,.34H0a25,25,0,0,0,.8,6.28l3.08.34Z"/><path class="cls-13" d="M6.84,21.43,0,24.66c0,.11,0,.23,0,.34H0a25,25,0,0,0,.8,6.28l3.08.34Z"/><path class="cls-4" d="M3.87,31.62l-1.1,4.83A25.06,25.06,0,0,0,6.86,42.2l13-3.27Z"/><path class="cls-14" d="M3.87,31.62l-1.1,4.83A25.06,25.06,0,0,0,6.86,42.2l13-3.27Z"/><path class="cls-4" d="M1.37,33.17a24.85,24.85,0,0,0,1.41,3.28l1.1-4.83Z"/><path class="cls-15" d="M1.37,33.17a24.85,24.85,0,0,0,1.41,3.28l1.1-4.83Z"/><path class="cls-4" d="M.8,31.28q.25,1,.57,1.89l2.51-1.54Z"/><path class="cls-16" d="M.8,31.28q.25,1,.57,1.89l2.51-1.54Z"/><path class="cls-4" d="M6.86,42.2A25.05,25.05,0,0,0,15.14,48l4.71-9.05Z"/><path class="cls-17" d="M6.86,42.2A25.05,25.05,0,0,0,15.14,48l4.71-9.05Z"/><path class="cls-4" d="M40.43,44.68A25.08,25.08,0,0,0,48,34.78l-7.59,2Z"/><path class="cls-18" d="M40.43,44.68A25.08,25.08,0,0,0,48,34.78l-7.59,2Z"/><path class="cls-4" d="M40.43,36.79,19.77,49.45A25.1,25.1,0,0,0,25,50h0a24.89,24.89,0,0,0,15.43-5.32Z"/><path class="cls-19" d="M40.43,36.79,19.77,49.45A25.1,25.1,0,0,0,25,50h0a24.89,24.89,0,0,0,15.43-5.32Z"/><polygon class="cls-4" points="19.85 38.92 40.42 36.8 38.71 16.41 19.85 38.92"/><polygon class="cls-20" points="19.85 38.92 40.42 36.8 38.71 16.41 19.85 38.92"/><path class="cls-4" d="M16.2,11.08,13.19,3A25.06,25.06,0,0,0,8.35,6.35L6.84,21.43Z"/><path class="cls-21" d="M16.2,11.08,13.19,3A25.06,25.06,0,0,0,8.35,6.35L6.84,21.43Z"/><path class="cls-4" d="M40.43,36.79,49.67,29A25.18,25.18,0,0,0,50,25h0c0-.81,0-1.62-.12-2.41L38.71,16.41Z"/><path class="cls-22" d="M40.43,36.79,49.67,29A25.18,25.18,0,0,0,50,25h0c0-.81,0-1.62-.12-2.41L38.71,16.41Z"/><path class="cls-4" d="M1.17,17.43A25,25,0,0,0,0,24.66l6.83-3.23Z"/><path class="cls-23" d="M1.17,17.43A25,25,0,0,0,0,24.66l6.83-3.23Z"/><polygon class="cls-4" points="6.84 21.43 19.85 38.92 38.71 16.41 6.84 21.43"/><polygon class="cls-24" points="6.84 21.43 19.85 38.92 38.71 16.41 6.84 21.43"/><path class="cls-4" d="M19.85,38.92,15.14,48a24.81,24.81,0,0,0,4.62,1.47L40.43,36.79Z"/><path class="cls-25" d="M19.85,38.92,15.14,48a24.81,24.81,0,0,0,4.62,1.47L40.43,36.79Z"/><path class="cls-4" d="M48,34.78A24.81,24.81,0,0,0,49.67,29l-9.25,7.76Z"/><path class="cls-26" d="M48,34.78A24.81,24.81,0,0,0,49.67,29l-9.25,7.76Z"/></g><path class="cls-27" d="M23,34.07c.31-1.28-1.54-2.05-.8-2.49s2.3,1.27,3.33,2A9.6,9.6,0,0,0,30,35.17a6.74,6.74,0,0,0,6.57-5.59,12,12,0,0,0-.9-7.29A13.47,13.47,0,0,0,29,16.14c-1.25-.56.08-1.71-2.81-1.39-6.52.71-9.58,3.38-11.62,6.1a10.79,10.79,0,0,0-1.9,7.77C13,31.38,15.48,35,18.91,35.3,21.32,35.54,22.74,35.13,23,34.07Z"/><path class="cls-28" d="M146.61,21.79V5.33a.67.67,0,0,1,.67-.67h7.85A1.36,1.36,0,0,1,156.49,6v16.7h-2.1l0,6.22a.63.63,0,0,0,1.19.16A4.86,4.86,0,0,0,156,27l.27.16a3,3,0,0,1,1.47,3.58,1.58,1.58,0,0,1-.38.71,2.34,2.34,0,0,1-1.73.62h-1.23a2.63,2.63,0,0,1-1.85-.49,1.89,1.89,0,0,1-.62-1.36V22.72h-1.36a24.55,24.55,0,0,1-.74,4.95,9.79,9.79,0,0,1-2,3.22,9.62,9.62,0,0,1-1.53,1.17,1.52,1.52,0,0,1-2.18-.59,4.28,4.28,0,0,0-.74-1.08h-8.77A.61.61,0,0,0,134,31v1h-.15a2.69,2.69,0,0,1-2.69-2.69V21.48L129.95,23q-.24-.51-.47-1a3.11,3.11,0,0,1,.37-3.37,26.58,26.58,0,0,0,2.58-3.69h-1.73a.62.62,0,0,1-.62-.62V10.37a.52.52,0,0,1,.51-.52h5.64a.52.52,0,0,1,.51.52v4.56h-2.59a1.34,1.34,0,0,1,.27,1.71l-.39.64h3.58L138.84,15h0a.62.62,0,0,1-.62-.62V10.37a.52.52,0,0,1,.51-.52h5.9a.62.62,0,0,1,.62.62V15h-4.81l.65.39a.6.6,0,0,1,.15.89q-.62.76-.8.95h4a.8.8,0,0,1,.8.8v.37a.8.8,0,0,1-.8.8h-3.7a.8.8,0,0,0-.8.8h0a.8.8,0,0,0,.8.8h2.84a.8.8,0,0,1,.8.8v.25a.8.8,0,0,1-.8.8h-2.84a.8.8,0,0,0-.8.8h0a.8.8,0,0,0,.8.8h2.84a.8.8,0,0,1,.8.8v.12a.8.8,0,0,1-.8.8h-2.84a.8.8,0,0,0-.8.8v.49a.8.8,0,0,0,.8.8h3.58a.8.8,0,0,1,.8.8h0a.27.27,0,0,0,.45.21,7.31,7.31,0,0,0,1.65-1.88,19.3,19.3,0,0,0,1.11-4.58h-.8A.93.93,0,0,1,146.61,21.79ZM133.53,5.65V4.42a.75.75,0,0,1,.75-.75h1a.75.75,0,0,1,.75.75V5.65h3.33V4.42a.75.75,0,0,1,.75-.75h1.09a.75.75,0,0,1,.75.75V5.65h1.6a2.22,2.22,0,0,1,2.22,2.23h-3.83V9.23h-2.59V7.87H136V9.23h-2.47V7.87h-3a1.11,1.11,0,0,1-1.11-1.11h0a1.11,1.11,0,0,1,1.11-1.11Zm1.11,7.16v-.58a.52.52,0,0,0-.51-.52h-1.32a.52.52,0,0,0-.51.52v.58a.52.52,0,0,0,.51.52h1.32A.52.52,0,0,0,134.64,12.8Zm2.59,7.26h0a.8.8,0,0,0-.8-.8h-1.6a.8.8,0,0,0-.8.8h0a.8.8,0,0,0,.8.8h1.6A.8.8,0,0,0,137.23,20.06Zm0,3.46h0a.8.8,0,0,0-.8-.8h-1.6a.8.8,0,0,0-.8.8h0a.8.8,0,0,0,.8.8h1.6A.8.8,0,0,0,137.23,23.52Zm0,3.84v-.49a.8.8,0,0,0-.8-.8h-1.6a.8.8,0,0,0-.8.8v.49a.8.8,0,0,0,.8.8h1.6A.8.8,0,0,0,137.23,27.36ZM143,12.8v-.58a.52.52,0,0,0-.51-.52H141a.52.52,0,0,0-.51.52v.58a.52.52,0,0,0,.51.52h1.56A.52.52,0,0,0,143,12.8ZM153.9,9.3V8.05a.67.67,0,0,0-.67-.67h-3.35a.67.67,0,0,0-.67.67V9.3a.67.67,0,0,0,.67.67h3.35A.67.67,0,0,0,153.9,9.3Zm0,5.07v-1.5a.67.67,0,0,0-.67-.67h-3.35a.67.67,0,0,0-.67.67v1.5a.67.67,0,0,0,.67.67h3.35A.67.67,0,0,0,153.9,14.38Zm0,5.32V17.95a.67.67,0,0,0-.67-.67h-3.35a.67.67,0,0,0-.67.67V19.7a.67.67,0,0,0,.67.67h3.35A.67.67,0,0,0,153.9,19.7Z"/><path class="cls-28" d="M173.06,14.06V5.46a1.54,1.54,0,0,1,1.54-1.55h0a1.54,1.54,0,0,1,1.54,1.55v8.6h11a1.36,1.36,0,0,1,1.36,1.36h0a1.36,1.36,0,0,1-1.36,1.36H180a.54.54,0,0,0-.54.54V28.16a.83.83,0,0,0,.25.62,4.71,4.71,0,0,0,1.6.12h2.35a2.83,2.83,0,0,0,2.72-2.85c0-.18,0-.31,0-.36h0a3.11,3.11,0,0,1,1.6,4.53l0,0c-.89,1.1-2.39,1.24-3.7,1.24h-2.47q-3.83,0-4.44-.49-1-.62-1-2.6V16.78h-3.83a29.15,29.15,0,0,1-1.36,7.79,9.39,9.39,0,0,1-2.72,4.08q-1.61,1.61-6.54,3.71v0a3.12,3.12,0,0,1,1.61-3.94,10.11,10.11,0,0,0,2.1-1.23,7.91,7.91,0,0,0,2.47-2.72A9.52,9.52,0,0,0,169.36,21a30,30,0,0,0,.33-3.46.7.7,0,0,0-.7-.74h-6.54a1.36,1.36,0,0,1-1.36-1.36h0a1.36,1.36,0,0,1,1.36-1.36Zm-2.72-2.47,0,0a2.86,2.86,0,0,1-3.9-.64q-.83-1.09-1.83-2.28a1.29,1.29,0,0,1,.23-1.87l.16-.12a1.28,1.28,0,0,1,1.71.19A54.76,54.76,0,0,1,170.35,11.58Zm8,0h0q1.87-2.18,4-5a1.28,1.28,0,0,1,1.86-.2l.51.44a1.29,1.29,0,0,1,.08,1.87q-1.08,1.11-2.23,2.33A3.35,3.35,0,0,1,178.38,11.59Z"/><path class="cls-28" d="M193,14.17h0a2.34,2.34,0,0,1,2.34-2.35h2.86A1.21,1.21,0,0,1,199.37,13v5.83a12.6,12.6,0,0,0,7.77,2.22h10.11q1.72,0,3.45-.12a5.27,5.27,0,0,0-.37.81,2.37,2.37,0,0,1-2.22,1.54h-3.82v1.36h6.16a2.22,2.22,0,0,1-2.22,2.22h-3.94v2.59c0,.91-.17,1.48-.49,1.73a6.34,6.34,0,0,1-2.24.84,2.68,2.68,0,0,1-3-1.41,8.16,8.16,0,0,0-.68-1.16h3.2a.51.51,0,0,0,.37-.12V26.89H200.23c.49.32,1.43,1,2.39,1.78a2.54,2.54,0,0,1,.23,3.79h0c-.67-.59-2.53-2.12-3.06-2.58a2.08,2.08,0,0,1-.17-3h-4.68a2.22,2.22,0,0,1-2.22-2.22h18.74V23.31h-3.08a27.77,27.77,0,0,1-6.16-.62,25.46,25.46,0,0,1-3.7-1.85l-4.56,3.09-.39-.59a2.13,2.13,0,0,1,.77-3.06q1-.55,2.09-1.17V14.17ZM199.24,7l-1.73,2.22q-2-1.73-3.7-3l.47-.59a1.94,1.94,0,0,1,2.64-.36l0,0Q198.26,6.26,199.24,7ZM215,6.14h3.08a2.1,2.1,0,0,1,2.1,2.1H211l-.25,1.36h5.36a1.67,1.67,0,0,1,1.67,1.67v6.78a1.67,1.67,0,0,1-1.67,1.67h-11.7a1.67,1.67,0,0,1-1.67-1.67V11.27a1.67,1.67,0,0,1,1.67-1.67h3.75l.25-1.36h-7.89a2.1,2.1,0,0,1,2.1-2.1h2.84l-.06,0a1.37,1.37,0,0,1,.07-2.2l.85-.6,2.39,2.84h3.28l1.73-3,.76.42A1.76,1.76,0,0,1,215,6.14Zm-.12,5.75h0a.56.56,0,0,0-.55-.56h-8.63a.56.56,0,0,0-.55.56h0a.56.56,0,0,0,.55.56h8.63A.56.56,0,0,0,214.9,11.88Zm0,2.59v-.12a.56.56,0,0,0-.55-.56h-8.63a.56.56,0,0,0-.55.56v.12a.56.56,0,0,0,.55.56h8.63A.56.56,0,0,0,214.9,14.48Zm0,2.84v-.37a.56.56,0,0,0-.55-.56h-8.63a.56.56,0,0,0-.55.56v.37a.56.56,0,0,0,.55.56h8.63A.56.56,0,0,0,214.9,17.32Z"/><path class="cls-28" d="M228.58,26.51V18h18.23a1,1,0,0,1,1,1v7.51a1,1,0,0,1-1,1H242v1.61a.71.71,0,0,0,.12.49c.08,0,.25.12.49.37a5.55,5.55,0,0,0,1.6.12h3.08a3.55,3.55,0,0,0,1.36-.12.88.88,0,0,0,.74-.74q.12-.37.37-1.61a6.85,6.85,0,0,0,.94.51,2,2,0,0,1,.8,3.06v0a2.17,2.17,0,0,1-1.11.62,10.53,10.53,0,0,1-2.47.12h-5.05a9.92,9.92,0,0,1-2.71-.25,2,2,0,0,1-.86-1.85V27.51h-3.57A9.06,9.06,0,0,1,229.81,32a19.25,19.25,0,0,1-2,.28,4,4,0,0,1-3.66-1.64q-.22-.3-.47-.61a42.73,42.73,0,0,0,4.56-.12,10.94,10.94,0,0,0,2.47-.74,10.84,10.84,0,0,0,2.1-1.61h-3.19A1,1,0,0,1,228.58,26.51ZM242.13,4l.5.17-.74,1.24h8.38a2,2,0,0,1,2,2H240.78l-1,1.24h9.31a.93.93,0,0,1,.92.93h0a.93.93,0,0,1-.92.93h-8.2a1.36,1.36,0,0,1-1.36-1.36h0a2.07,2.07,0,0,1-2.59.33,4.72,4.72,0,0,0-.62-.33V13a.86.86,0,0,1-.86.86h-2.57a.51.51,0,0,0-.51.51v.34a.51.51,0,0,0,.51.51h4.17a1.89,1.89,0,0,1-1.89,1.89h-9.58a1,1,0,0,1-1-1V5.26a1,1,0,0,1,1-1h9.5a2,2,0,0,1,2,2h-4.17a.51.51,0,0,0-.51.51v.46a.51.51,0,0,0,.51.51h2.57a.86.86,0,0,1,.86.86h0a16.85,16.85,0,0,0,2.1-2.35q.31-.47.65-1.07A2.55,2.55,0,0,1,242.13,4ZM230.06,7.23V6.77a.51.51,0,0,0-.51-.51h-1.81a.51.51,0,0,0-.51.51v.46a.51.51,0,0,0,.51.51h1.81A.51.51,0,0,0,230.06,7.23Zm4.07,4.28V10.11a.64.64,0,0,0-.64-.64h-5.76a.51.51,0,0,0-.51.51v1.66a.51.51,0,0,0,.51.51h5.76A.64.64,0,0,0,234.13,11.52Zm-4.07,3.21v-.34a.51.51,0,0,0-.51-.51h-1.81a.51.51,0,0,0-.51.51v.34a.51.51,0,0,0,.51.51h1.81A.51.51,0,0,0,230.06,14.73ZM245,20.1h0a.62.62,0,0,0-.62-.62H231.91a.62.62,0,0,0-.62.62h0a.62.62,0,0,0,.62.62h12.45A.62.62,0,0,0,245,20.1Zm0,2.47h0a.62.62,0,0,0-.62-.62H231.91a.62.62,0,0,0-.62.62h0a.62.62,0,0,0,.62.62h12.45A.62.62,0,0,0,245,22.57Zm0,2.72V25a.62.62,0,0,0-.62-.62H231.91a.62.62,0,0,0-.62.62v.25a.62.62,0,0,0,.62.62h12.45A.62.62,0,0,0,245,25.29Zm-6.9-8.4V12.3a.72.72,0,0,1,.72-.72h12.11a.72.72,0,0,1,.72.72v3.86a.72.72,0,0,1-.72.72ZM242,14.43V14a.72.72,0,0,0-.72-.72h-.4a.72.72,0,0,0-.72.72v.4a.72.72,0,0,0,.72.72h.4A.72.72,0,0,0,242,14.43Zm3.57,0V14a.72.72,0,0,0-.72-.72h-.28a.72.72,0,0,0-.72.72v.4a.72.72,0,0,0,.72.72h.28A.72.72,0,0,0,245.59,14.43Zm3.82,0V14a.72.72,0,0,0-.72-.72h-.28a.72.72,0,0,0-.72.72v.4a.72.72,0,0,0,.72.72h.28A.72.72,0,0,0,249.41,14.43Z"/><path class="cls-28" d="M264.6,17.35,264,15.13h0a2.34,2.34,0,0,1,3,1.54c.29,1,.76,3,.94,4l-.85.27a1.39,1.39,0,0,1-1.79-1.07l-.06-.31-1.84.12V32h0a2.59,2.59,0,0,1-2.58-2.59V19.94l-1.58.14a2.6,2.6,0,0,1-2.81-2.24l0-.24h1.83L260.61,14a20.74,20.74,0,0,0-2.91-2.11,1.7,1.7,0,0,1-.44-2.47,38.18,38.18,0,0,0,3.89-5.91h0a2.81,2.81,0,0,1,1.13,3.76,24.59,24.59,0,0,1-2.45,2.91L262,11.44a33.49,33.49,0,0,0,2.63-4.49h0A3,3,0,0,1,265.75,11l-4.27,6.44C262.3,17.48,263.62,17.43,264.6,17.35Zm-5.53,10.94a1.1,1.1,0,0,1-1.34.84h0q-.74-.18-1.35-.31a40.48,40.48,0,0,0,1.23-7.27l.27.07a2.55,2.55,0,0,1,1.9,2.85Q259.48,26.32,259.07,28.28Zm8.11-1.57-.28.05a2,2,0,0,1-2.38-1.6q-.22-1.35-.41-3.13h0A2.29,2.29,0,0,1,266.73,24Q266.93,25.29,267.18,26.72Zm.61,4V6.65a1.75,1.75,0,0,1,1.75-1.76h12.73A1.75,1.75,0,0,1,284,6.65V29.43a1.92,1.92,0,0,1-.74,1.73,3.52,3.52,0,0,1-1.3.58,2.24,2.24,0,0,1-2.76-1.4l-.37-1H281a.51.51,0,0,0,.37-.12v-21a.8.8,0,0,0-.8-.81h-9.34a.8.8,0,0,0-.8.81V30.72A1.29,1.29,0,0,1,269.09,32h0A1.29,1.29,0,0,1,267.8,30.72Zm11.54-19.47-.85,2.15h2.09v.42a1.92,1.92,0,0,1-1.92,1.92H277v3h3.44v.24a1.85,1.85,0,0,1-1.85,1.85h-3.77a.46.46,0,0,0-.46.46V25a1,1,0,0,0,.12.62c.16.17.29.25.37.25h5.47A2.34,2.34,0,0,1,278,28.2h-2.34a6.52,6.52,0,0,1-3.13-.49,1.87,1.87,0,0,1-.74-1.48l0-6.3A1.21,1.21,0,0,1,273,18.7h1.58v-3h-3.2v-.52a1.82,1.82,0,0,1,1.81-1.82H276a27.67,27.67,0,0,0,1-3.08q.49-1.48.74-2.47h0A2.59,2.59,0,0,1,279.34,11.26Zm-7.73-2.17h0a2.49,2.49,0,0,1,3.27,1.52c.14.4.52,1.45.66,1.93l-.84.31a1.47,1.47,0,0,1-1.92-1v0A17.59,17.59,0,0,0,271.61,9.09Z"/><path class="cls-28" d="M68.24,9.55v-5a1.41,1.41,0,0,1,1.4-1.41h.13a1.41,1.41,0,0,1,1.4,1.41v5h.95a1.61,1.61,0,0,1,1.61,1.61v.95H71.17V14.8A30.91,30.91,0,0,0,73.59,17a1.56,1.56,0,0,1,.31,2.09l0,0a1.55,1.55,0,0,1-2.35.24L71.17,19V32.85h-.31a2.63,2.63,0,0,1-2.63-2.63V19.28A51.47,51.47,0,0,1,65,25l-.4-.68a4.25,4.25,0,0,1,0-4.37,29.84,29.84,0,0,0,1.43-2.64q1.4-3.2,2.17-5.25H65.43a1.28,1.28,0,0,1-1.28-1.28h0a1.28,1.28,0,0,1,1.28-1.28ZM79,18.26V4.69a1.41,1.41,0,0,1,1.4-1.41h0a1.41,1.41,0,0,1,1.4,1.41V16.46a42,42,0,0,1-.38,6.66A14.73,14.73,0,0,1,80,27a10.46,10.46,0,0,1-2,2.69,20.82,20.82,0,0,1-4,2.94l0,0a3.28,3.28,0,0,1,.93-4.26,10.21,10.21,0,0,0,2-1.86,11.26,11.26,0,0,0,1.92-5.12l-2.3,1.15q-1.28.64-2.43,1.28h0a3,3,0,0,1,1.57-3.91Q77.21,19.17,79,18.26ZM75.6,10.31h0a1.26,1.26,0,0,1,1.58.82q.62,2,1,3.54h0a2.41,2.41,0,0,1-3-1.58q-.17-.54-.39-1.17A1.26,1.26,0,0,1,75.6,10.31Zm8.34,19V4.81a1.41,1.41,0,0,1,1.4-1.41h.13a1.41,1.41,0,0,1,1.4,1.41V17.74q2,1.28,3.7,2.37l0,0a3,3,0,0,1,.91,4.11l-.17.28q-2.81-2.43-4.47-3.58v7.81a.73.73,0,0,0,.26.51c.17.17.3.26.38.26h1.92q.89,0,1-.51a18.2,18.2,0,0,0,.64-2.3l.88.54a2.73,2.73,0,0,1,.94,3.87,1.77,1.77,0,0,1-.42.46,5.47,5.47,0,0,1-3.07.64h-2a3.52,3.52,0,0,1-2.55-.77A2.71,2.71,0,0,1,83.95,29.27Zm8-16.64L90.72,14h0a2.52,2.52,0,0,1-3.43.12L87.14,14q1.36-1.63,2.45-3.2a1.46,1.46,0,0,1,2.1-.31h0A1.47,1.47,0,0,1,91.9,12.63Z"/><path class="cls-28" d="M98,31V5.28A1.32,1.32,0,0,1,99.32,4h23.92a1.32,1.32,0,0,1,1.32,1.33V31a1.32,1.32,0,0,1-1.32,1.33H99.32A1.32,1.32,0,0,1,98,31Zm23.5-2.47V7.71a1.32,1.32,0,0,0-1.32-1.33H102.38a1.32,1.32,0,0,0-1.32,1.33V28.58a1.32,1.32,0,0,0,1.32,1.33h17.79A1.32,1.32,0,0,0,121.5,28.58ZM104.25,21V18.28a1.35,1.35,0,0,1,1.35-1.35h10.84a1.35,1.35,0,0,1,1.35,1.35v3.9h0a1.31,1.31,0,0,1,1.75,0l1.18,1.11-3.07,1.92a4.88,4.88,0,0,0,.52.32,2.47,2.47,0,0,1,.95,3.42l-.06.1a21.09,21.09,0,0,1-3.7-1.92q-1.28-1-2.81-2.43V29h-2.94V24.48A38,38,0,0,1,103,28.43l-.09-.14a2.29,2.29,0,0,1,.94-3.32,22.29,22.29,0,0,0,4.4-2.67H105.6A1.35,1.35,0,0,1,104.25,21Zm5.36-10.8V8.53a1.47,1.47,0,0,1,1.47-1.47h0a1.47,1.47,0,0,1,1.47,1.47v1.62h5a1,1,0,0,1,1,1h0a1,1,0,0,1-1,1h-5v1.43h7a1,1,0,0,1,1,1v.13a1,1,0,0,1-1,1H103.1a1,1,0,0,1-1-1v-.13a1,1,0,0,1,1-1h6.51V12.2h-4.34a1,1,0,0,1-1-1h0a1,1,0,0,1,1-1Zm5.87,9.46h0a.9.9,0,0,0-.89-.9h-7a.9.9,0,0,0-.89.9h0a.9.9,0,0,0,.89.9h7A.9.9,0,0,0,115.49,19.62Zm0,4.41,2.17-1.79h-4.21A14.75,14.75,0,0,0,115.49,24Z"/><path class="cls-29" d="M73.13,43.22H70v3.24H68.86V39.14H73.6v.79H70v2.53h3.15Z"/><path class="cls-29" d="M75,39.14h1V40H75Zm1,2v5.28H75V41.18Z"/><path class="cls-29" d="M78.61,43.86v2.6h-1V41.18h1v.94a2.83,2.83,0,0,1,.82-.79,1.87,1.87,0,0,1,1-.26,4.36,4.36,0,0,1,.56.08V42a1.75,1.75,0,0,0-.78-.15,1.57,1.57,0,0,0-1.12.45A2.18,2.18,0,0,0,78.61,43.86Z"/><path class="cls-29" d="M81.5,45.18h1a.51.51,0,0,0,.3.49,1.71,1.71,0,0,0,.95.23,1.89,1.89,0,0,0,1-.3q.39-.3.39-.57a.58.58,0,0,0-.22-.45,6.65,6.65,0,0,0-1.42-.49A3.61,3.61,0,0,1,82,43.41a1.06,1.06,0,0,1-.39-.83,1.29,1.29,0,0,1,.65-1.06,2.67,2.67,0,0,1,1.64-.45,2.49,2.49,0,0,1,1.6.38,1.07,1.07,0,0,1,.52.87H85a.36.36,0,0,0-.22-.34,1.79,1.79,0,0,0-.86-.19A1.71,1.71,0,0,0,83,42a.64.64,0,0,0-.35.53.52.52,0,0,0,.26.42,7.41,7.41,0,0,0,1.73.53,2.74,2.74,0,0,1,1.21.57,1.3,1.3,0,0,1,.35.83,1.57,1.57,0,0,1-.65,1.25,2.65,2.65,0,0,1-1.77.49,2.94,2.94,0,0,1-1.68-.42A1.21,1.21,0,0,1,81.5,45.18Z"/><path class="cls-29" d="M91.16,45.71v.75a4.33,4.33,0,0,1-1.12.15,1.81,1.81,0,0,1-1.42-.49,1.86,1.86,0,0,1-.52-1.47V41.94h-1v-.75h1V39.94h1v1.25h1.77v.75H89.09v2.45a1.66,1.66,0,0,0,.3,1.21,1.08,1.08,0,0,0,.86.3A5.44,5.44,0,0,0,91.16,45.71Z"/><path class="cls-29" d="M95.22,44.8H96.3a.87.87,0,0,0,.35.79,2.57,2.57,0,0,0,1.42.34,1.85,1.85,0,0,0,1.25-.38,1.2,1.2,0,0,0,.43-.94.91.91,0,0,0-.3-.72,7.09,7.09,0,0,0-1.81-.83A4,4,0,0,1,96,42.12a1.68,1.68,0,0,1-.52-1.21,1.74,1.74,0,0,1,.73-1.43,3.32,3.32,0,0,1,2.07-.57,3.22,3.22,0,0,1,1.81.42,1.2,1.2,0,0,1,.56,1.06H99.49a.54.54,0,0,0-.3-.53,2.35,2.35,0,0,0-1.08-.19A2,2,0,0,0,97,40a1.06,1.06,0,0,0-.39.83,1.13,1.13,0,0,0,.43.87,12.91,12.91,0,0,0,1.81.79,4.36,4.36,0,0,1,1.6.94,1.71,1.71,0,0,1,.43,1.17,1.92,1.92,0,0,1-.69,1.51,3.15,3.15,0,0,1-2.11.6,3.68,3.68,0,0,1-2.16-.53A1.57,1.57,0,0,1,95.22,44.8Z"/><path class="cls-29" d="M105.79,45.71v.75a4.33,4.33,0,0,1-1.12.15,1.81,1.81,0,0,1-1.42-.49,1.86,1.86,0,0,1-.52-1.47V41.94h-1v-.75h1V39.94h1v1.25h1.77v.75h-1.77v2.45a1.66,1.66,0,0,0,.3,1.21,1.08,1.08,0,0,0,.86.3A5.44,5.44,0,0,0,105.79,45.71Z"/><path class="cls-29" d="M109.54,46.61a2.78,2.78,0,0,1-2-.75,2.56,2.56,0,0,1-.82-2,2.64,2.64,0,0,1,.78-2,2.94,2.94,0,0,1,2.07-.72,2.87,2.87,0,0,1,2,.72,2.64,2.64,0,0,1,.78,2,2.71,2.71,0,0,1-.78,2A2.79,2.79,0,0,1,109.54,46.61Zm0-.72a1.64,1.64,0,0,0,1.25-.57,2.07,2.07,0,0,0,.52-1.51,2,2,0,0,0-.52-1.51,1.69,1.69,0,0,0-1.25-.53,1.74,1.74,0,0,0-1.29.53,2,2,0,0,0-.52,1.51,2.07,2.07,0,0,0,.52,1.51A1.68,1.68,0,0,0,109.54,45.9Z"/><path class="cls-29" d="M114.59,45.56V48.5h-1V41.18h1v.94a1.9,1.9,0,0,1,.73-.75,2.68,2.68,0,0,1,1.21-.3,2.35,2.35,0,0,1,1.77.72,3.35,3.35,0,0,1,0,4.07,2.43,2.43,0,0,1-1.81.75,2,2,0,0,1-1.08-.26A2.38,2.38,0,0,1,114.59,45.56Zm0-1.74a2.24,2.24,0,0,0,.47,1.55,1.65,1.65,0,0,0,2.42,0,2.18,2.18,0,0,0,.47-1.51,2.45,2.45,0,0,0-.43-1.62,1.58,1.58,0,0,0-1.25-.49,1.51,1.51,0,0,0-1.16.53A2,2,0,0,0,114.59,43.82Z"/><path class="cls-29" d="M123.35,39.14h1V40h-1Zm1,2v5.28h-1V41.18Z"/><path class="cls-29" d="M127,43.86v2.6h-1V41.18h1v.94a2.19,2.19,0,0,1,1.94-1.06,2.16,2.16,0,0,1,1.47.45,2.1,2.1,0,0,1,.52,1.58v3.36h-1v-3q0-1.06-.3-1.32a1.33,1.33,0,0,0-.91-.3,1.47,1.47,0,0,0-1.17.49A2,2,0,0,0,127,43.86Z"/><path class="cls-29" d="M141.56,39.9h-2.8v6.56h-1.08V39.9h-2.85v-.75h6.73Z"/><path class="cls-29" d="M147.3,46.46h-1.08a2.46,2.46,0,0,1-.13-.72,10.22,10.22,0,0,1-1,.64,2.2,2.2,0,0,1-1,.23,1.83,1.83,0,0,1-1.25-.42,1.3,1.3,0,0,1-.47-1,1.28,1.28,0,0,1,.82-1.25,9.46,9.46,0,0,1,2.93-.75v-.6a.64.64,0,0,0-.26-.6,1.58,1.58,0,0,0-1-.26,1.72,1.72,0,0,0-.95.23.86.86,0,0,0-.35.64h-1.12a1.35,1.35,0,0,1,.69-1.06,3,3,0,0,1,1.77-.49,3.57,3.57,0,0,1,1.34.23,1.4,1.4,0,0,1,.73.53,2.17,2.17,0,0,1,.17,1.06v2.08A5.59,5.59,0,0,0,147.3,46.46Zm-1.21-2.15v-.49a9.09,9.09,0,0,0-2.29.68.79.79,0,0,0-.39.68.54.54,0,0,0,.3.53,1,1,0,0,0,.69.23,1.72,1.72,0,0,0,1.17-.45A1.48,1.48,0,0,0,146.09,44.31Z"/><path class="cls-29" d="M148.63,39.14h1V40h-1Zm1,2v5.28h-1V41.18Z"/><path class="cls-29" d="M156.14,46.46l-1.42-4.19-1.38,4.19h-1l-1.73-5.28h1l1.21,4.07,1.34-4.07h1l1.42,4.07L158,41.18h.95l-1.73,5.28Z"/><path class="cls-29" d="M164.64,46.46h-1.08a2.46,2.46,0,0,1-.13-.72,10.22,10.22,0,0,1-1,.64,2.2,2.2,0,0,1-1,.23,1.83,1.83,0,0,1-1.25-.42,1.3,1.3,0,0,1-.47-1,1.28,1.28,0,0,1,.82-1.25,9.46,9.46,0,0,1,2.93-.75v-.6a.64.64,0,0,0-.26-.6,1.58,1.58,0,0,0-1-.26,1.72,1.72,0,0,0-.95.23.86.86,0,0,0-.35.64h-1.12a1.35,1.35,0,0,1,.69-1.06,3,3,0,0,1,1.77-.49,3.57,3.57,0,0,1,1.34.23,1.4,1.4,0,0,1,.73.53,2.17,2.17,0,0,1,.17,1.06v2.08A5.59,5.59,0,0,0,164.64,46.46Zm-1.21-2.15v-.49a9.09,9.09,0,0,0-2.29.68.79.79,0,0,0-.39.68.54.54,0,0,0,.3.53,1,1,0,0,0,.69.23,1.72,1.72,0,0,0,1.17-.45A1.48,1.48,0,0,0,163.43,44.31Z"/><path class="cls-29" d="M167,43.86v2.6h-1V41.18h1v.94A2.19,2.19,0,0,1,169,41.07a2.16,2.16,0,0,1,1.47.45,2.1,2.1,0,0,1,.52,1.58v3.36h-1v-3q0-1.06-.3-1.32a1.33,1.33,0,0,0-.91-.3,1.47,1.47,0,0,0-1.17.49A2,2,0,0,0,167,43.86Z"/></svg>